<svg width="118" height="20" viewBox="0 0 118 20" fill="none" xmlns="http://www.w3.org/2000/svg">
<path d="M7.59997 15.32L4.29997 10.26L7.35997 8.46001L12.08 15.32H7.59997ZM-2.92361e-05 15.32V4.48001H3.79997V15.32H-2.92361e-05ZM2.67997 11.46V8.48001H6.59997V11.46H2.67997ZM7.73997 10.32L4.17997 9.96001L7.81997 4.48001H11.84L7.73997 10.32Z" fill="#DD4859"/>
<path d="M14.0798 15.58C13.8265 15.58 13.5398 15.5533 13.2198 15.5C12.9131 15.46 12.5865 15.4 12.2398 15.32L12.3998 12.22C12.4931 12.2333 12.5798 12.2467 12.6598 12.26C12.7398 12.26 12.8131 12.26 12.8798 12.26C13.2131 12.26 13.4731 12.18 13.6598 12.02C13.8598 11.8467 14.0065 11.6133 14.0998 11.32C14.2065 11.0267 14.2798 10.6867 14.3198 10.3C14.3731 9.90001 14.4065 9.46667 14.4198 9.00001L14.5798 4.48001H24.3798V15.32H20.5798V6.64001L21.4198 7.50001H17.0798L17.8798 6.60001L17.7598 9.16001C17.7198 10.1333 17.6331 11.02 17.4998 11.82C17.3798 12.6067 17.1865 13.28 16.9198 13.84C16.6531 14.4 16.2865 14.8333 15.8198 15.14C15.3665 15.4333 14.7865 15.58 14.0798 15.58ZM28.9336 19.38C28.3602 19.38 27.7802 19.2867 27.1936 19.1C26.6202 18.9267 26.1536 18.6933 25.7936 18.4L27.1136 15.74C27.3402 15.94 27.6002 16.0933 27.8936 16.2C28.2002 16.32 28.5002 16.38 28.7936 16.38C29.2069 16.38 29.5336 16.2867 29.7736 16.1C30.0136 15.9133 30.2202 15.62 30.3936 15.22L30.8936 13.96L31.1936 13.58L34.8736 4.48001H38.4936L33.8136 15.76C33.4402 16.6933 33.0069 17.42 32.5136 17.94C32.0336 18.4733 31.4936 18.8467 30.8936 19.06C30.3069 19.2733 29.6536 19.38 28.9336 19.38ZM30.4136 15.78L25.6336 4.48001H29.5336L33.0536 13.24L30.4136 15.78ZM45.3275 15.6C44.4475 15.6 43.6275 15.4733 42.8675 15.22C42.1208 14.9667 41.4675 14.5667 40.9075 14.02C40.3608 13.4733 39.9275 12.76 39.6075 11.88C39.3008 11 39.1475 9.93334 39.1475 8.68001C39.1475 7.84001 39.2208 7.06667 39.3675 6.36001C39.5141 5.65334 39.7341 5.00667 40.0275 4.42001C40.3341 3.82001 40.7208 3.29334 41.1875 2.84001C41.6675 2.38667 42.2275 2.00667 42.8675 1.70001C43.5075 1.39334 44.2408 1.16001 45.0675 1.00001L50.3275 6.67572e-06L50.8475 3.18001L46.2875 4.04001C46.0075 4.09334 45.7008 4.16001 45.3675 4.24001C45.0475 4.32001 44.7341 4.44001 44.4275 4.60001C44.1208 4.74667 43.8341 4.95334 43.5675 5.22001C43.3141 5.48667 43.1075 5.84001 42.9475 6.28001C42.8008 6.70667 42.7275 7.24001 42.7275 7.88001C42.7275 8.06667 42.7341 8.22001 42.7475 8.34001C42.7741 8.44667 42.7941 8.57334 42.8075 8.72001C42.8208 8.85334 42.8275 9.06001 42.8275 9.34001L41.7675 8.36001C42.0875 7.80001 42.4675 7.32667 42.9075 6.94001C43.3608 6.55334 43.8808 6.25334 44.4675 6.04001C45.0541 5.82667 45.7075 5.72001 46.4275 5.72001C47.4808 5.72001 48.3875 5.92667 49.1475 6.34001C49.9075 6.74001 50.4875 7.30001 50.8875 8.02001C51.3008 8.72667 51.5075 9.53334 51.5075 10.44C51.5075 11.5067 51.2408 12.4267 50.7075 13.2C50.1741 13.96 49.4408 14.5533 48.5075 14.98C47.5875 15.3933 46.5275 15.6 45.3275 15.6ZM45.4275 12.72C45.8675 12.72 46.2475 12.6267 46.5675 12.44C46.9008 12.2533 47.1608 11.9933 47.3475 11.66C47.5341 11.3267 47.6275 10.9533 47.6275 10.54C47.6275 10.1133 47.5341 9.74667 47.3475 9.44001C47.1608 9.13334 46.9008 8.89334 46.5675 8.72001C46.2475 8.54667 45.8675 8.46001 45.4275 8.46001C44.9875 8.46001 44.5941 8.54667 44.2475 8.72001C43.9141 8.89334 43.6541 9.12667 43.4675 9.42001C43.2808 9.71334 43.1875 10.0667 43.1875 10.48C43.1875 10.8933 43.2808 11.2733 43.4675 11.62C43.6541 11.9667 43.9141 12.24 44.2475 12.44C44.5941 12.6267 44.9875 12.72 45.4275 12.72ZM53.2617 15.32V4.48001H57.0417V8.50001H60.9417V4.48001H64.7417V15.32H60.9417V11.52H57.0417V15.32H53.2617ZM67.3047 15.32V4.48001H71.0847V10.16L75.6247 4.48001H79.1247V15.32H75.3247V9.62001L70.8247 15.32H67.3047ZM85.5197 12.08C84.013 12.08 82.873 11.7467 82.0997 11.08C81.3397 10.4 80.9597 9.32001 80.9597 7.84001V4.48001H84.7597V7.58001C84.7597 8.19334 84.8997 8.62667 85.1797 8.88001C85.4597 9.13334 85.8663 9.26001 86.3997 9.26001C86.813 9.26001 87.193 9.21334 87.5397 9.12001C87.8997 9.01334 88.2263 8.87334 88.5197 8.70001L88.5397 11.32C88.1663 11.5467 87.733 11.7333 87.2397 11.88C86.7463 12.0133 86.173 12.08 85.5197 12.08ZM88.2797 15.32V4.48001H92.0597V15.32H88.2797ZM102.229 15.32L98.9289 10.26L101.989 8.46001L106.709 15.32H102.229ZM94.6289 15.32V4.48001H98.4289V15.32H94.6289ZM97.3089 11.46V8.48001H101.229V11.46H97.3089ZM102.369 10.32L98.8089 9.96001L102.449 4.48001H106.469L102.369 10.32ZM114.193 15.32V13.3L113.933 12.8V9.08001C113.933 8.48001 113.747 8.02001 113.373 7.70001C113.013 7.36667 112.433 7.20001 111.633 7.20001C111.113 7.20001 110.587 7.28667 110.053 7.46001C109.52 7.62001 109.067 7.84667 108.693 8.14001L107.413 5.56001C108.027 5.16001 108.76 4.85334 109.613 4.64001C110.48 4.41334 111.34 4.30001 112.193 4.30001C113.953 4.30001 115.313 4.70667 116.273 5.52001C117.247 6.32001 117.733 7.58001 117.733 9.30001V15.32H114.193ZM110.993 15.5C110.127 15.5 109.393 15.3533 108.793 15.06C108.193 14.7667 107.733 14.3667 107.413 13.86C107.107 13.3533 106.953 12.7867 106.953 12.16C106.953 11.4933 107.12 10.92 107.453 10.44C107.8 9.94667 108.327 9.57334 109.033 9.32001C109.74 9.05334 110.653 8.92001 111.773 8.92001H114.333V10.9H112.293C111.68 10.9 111.247 11 110.993 11.2C110.753 11.4 110.633 11.6667 110.633 12C110.633 12.3333 110.76 12.6 111.013 12.8C111.267 13 111.613 13.1 112.053 13.1C112.467 13.1 112.84 13 113.173 12.8C113.52 12.5867 113.773 12.2667 113.933 11.84L114.453 13.24C114.253 13.9867 113.86 14.5533 113.273 14.94C112.7 15.3133 111.94 15.5 110.993 15.5Z" fill="black"/>
</svg>
